<?xml version="1.0" encoding="UTF-8"?>
<svg id="Layer_1" data-name="Layer 1" xmlns="http://www.w3.org/2000/svg" version="1.1" xmlns:xlink="http://www.w3.org/1999/xlink" viewBox="0 0 300 107">
  <defs>
    <style>
      .cls-1 {
        fill: url(#linear-gradient);
      }

      .cls-1, .cls-2, .cls-3, .cls-4 {
        stroke-width: 0px;
      }

      .cls-1, .cls-3 {
        fill-rule: evenodd;
      }

      .cls-2 {
        fill: #003349;
      }

      .cls-3 {
        fill: url(#linear-gradient-2);
      }

      .cls-4 {
        fill: #003349;
      }
    </style>
    <linearGradient id="linear-gradient" x1="29" y1="8.72" x2="52.18" y2="31.91" gradientUnits="userSpaceOnUse">
      <stop offset="0" stop-color="#2cd5c4"/>
      <stop offset=".98" stop-color="#003349"/>
    </linearGradient>
    <linearGradient id="linear-gradient-2" x1="23.2" y1="55.38" x2="46.39" y2="78.56" gradientTransform="translate(0 127.85) scale(1 -1)" xlink:href="#linear-gradient"/>
  </defs>
  <g>
    <path class="cls-2" d="M76.65,92.22c.58-.42.98-1.05,1.2-1.87l1.54.33c-.27,1.14-.84,2.04-1.72,2.69s-1.91.98-3.09.98c-1.44,0-2.66-.5-3.66-1.5s-1.5-2.22-1.5-3.67.5-2.66,1.5-3.66,2.22-1.5,3.66-1.5c1.17,0,2.2.32,3.08.96.88.64,1.46,1.5,1.73,2.59l-1.54.44c-.22-.82-.62-1.44-1.2-1.87-.58-.42-1.27-.64-2.07-.64-1.01,0-1.85.35-2.54,1.06-.69.71-1.03,1.58-1.03,2.61s.34,1.91,1.03,2.61c.69.71,1.53,1.06,2.54,1.06.8,0,1.49-.21,2.07-.64Z"/>
    <path class="cls-2" d="M87.38,87.71c.76.72,1.13,1.64,1.13,2.76s-.38,2.05-1.14,2.77c-.76.72-1.69,1.08-2.78,1.08s-2.04-.36-2.81-1.08c-.77-.72-1.15-1.64-1.15-2.77s.38-2.05,1.15-2.76c.76-.72,1.7-1.07,2.81-1.07s2.04.36,2.79,1.07ZM86.29,92.29c.48-.47.73-1.07.73-1.81s-.24-1.34-.73-1.81c-.48-.47-1.05-.7-1.7-.7s-1.25.23-1.73.7-.72,1.07-.72,1.81.24,1.34.72,1.81c.48.47,1.05.7,1.73.7s1.22-.23,1.7-.7Z"/>
    <path class="cls-2" d="M101.28,87.39c.54.53.81,1.22.81,2.07v4.68h-1.52v-4.37c0-.53-.16-.96-.47-1.28-.31-.32-.71-.48-1.19-.48-.61,0-1.1.21-1.45.64-.35.42-.53,1.04-.53,1.85v3.64h-1.54v-4.37c0-.53-.15-.96-.47-1.28-.31-.32-.71-.48-1.19-.48-.6,0-1.08.21-1.43.64s-.53,1.04-.53,1.85v3.64h-1.54v-7.34h1.54v.83c.56-.69,1.35-1.04,2.35-1.04.53,0,1.01.12,1.44.36.43.24.76.57,1,.99.64-.9,1.55-1.35,2.74-1.35.78,0,1.44.27,1.98.8Z"/>
    <path class="cls-2" d="M111.03,87.69c.72.73,1.08,1.66,1.08,2.78s-.36,2.07-1.07,2.79c-.72.73-1.57,1.09-2.57,1.09-1.12,0-2.01-.37-2.67-1.11v4.46h-1.54v-10.9h1.54v.9c.66-.74,1.55-1.11,2.67-1.11.99,0,1.84.36,2.56,1.1ZM109.94,92.3c.45-.46.68-1.07.68-1.83s-.23-1.37-.68-1.83c-.45-.46-1.03-.69-1.72-.69-.64,0-1.2.23-1.69.7-.48.47-.73,1.07-.73,1.81s.24,1.34.73,1.81c.48.47,1.05.7,1.69.7.69,0,1.26-.23,1.72-.69Z"/>
    <path class="cls-2" d="M118.67,86.77l-.1,1.48c-.08,0-.22-.01-.43-.01-.91,0-1.6.29-2.07.88-.47.59-.71,1.4-.71,2.44v2.59h-1.54v-7.34h1.54v1.57c.67-1.11,1.6-1.66,2.8-1.66.22,0,.39.02.52.06Z"/>
    <path class="cls-2" d="M126.14,87.71c.76.72,1.13,1.64,1.13,2.76s-.38,2.05-1.14,2.77c-.76.72-1.69,1.08-2.78,1.08s-2.04-.36-2.81-1.08c-.77-.72-1.15-1.64-1.15-2.77s.38-2.05,1.15-2.76c.76-.72,1.7-1.07,2.81-1.07s2.04.36,2.79,1.07ZM125.06,92.29c.48-.47.73-1.07.73-1.81s-.24-1.34-.73-1.81c-.48-.47-1.05-.7-1.7-.7s-1.25.23-1.73.7-.72,1.07-.72,1.81.24,1.34.72,1.81c.48.47,1.05.7,1.73.7s1.22-.23,1.7-.7Z"/>
    <path class="cls-2" d="M140.05,87.39c.54.53.81,1.22.81,2.07v4.68h-1.52v-4.37c0-.53-.16-.96-.47-1.28-.31-.32-.71-.48-1.19-.48-.61,0-1.1.21-1.45.64-.35.42-.53,1.04-.53,1.85v3.64h-1.54v-4.37c0-.53-.15-.96-.47-1.28-.31-.32-.71-.48-1.19-.48-.6,0-1.08.21-1.43.64s-.53,1.04-.53,1.85v3.64h-1.54v-7.34h1.54v.83c.56-.69,1.35-1.04,2.35-1.04.53,0,1.01.12,1.44.36.43.24.76.57,1,.99.64-.9,1.55-1.35,2.74-1.35.78,0,1.44.27,1.98.8Z"/>
    <path class="cls-2" d="M144.62,83.91c.19.19.28.42.28.68s-.09.5-.27.68c-.18.18-.42.27-.7.27s-.52-.09-.71-.27c-.19-.18-.28-.4-.28-.68s.09-.49.28-.68.42-.28.71-.28.51.09.7.28ZM143.15,94.15v-7.34h1.54v7.34h-1.54Z"/>
    <path class="cls-2" d="M148.05,91.85c.05.41.24.73.57.93.33.21.75.31,1.27.31.44,0,.8-.09,1.06-.27.26-.18.39-.42.39-.71,0-.43-.33-.73-.99-.87l-1.6-.33c-1.33-.3-2-.96-2-2,0-.69.26-1.25.79-1.68s1.23-.64,2.11-.64c.83,0,1.52.19,2.07.58.55.39.89.9,1.03,1.53l-1.47.31c-.06-.36-.24-.66-.53-.87-.3-.22-.68-.32-1.14-.32-.42,0-.75.09-.97.27-.22.18-.33.41-.33.69,0,.41.3.69.89.83l1.75.38c.6.13,1.07.36,1.41.7.34.34.5.77.5,1.28,0,.75-.28,1.33-.84,1.75-.56.41-1.31.62-2.25.62-.87,0-1.6-.19-2.21-.56-.6-.37-.95-.91-1.04-1.62l1.54-.33Z"/>
    <path class="cls-2" d="M155.52,91.85c.05.41.24.73.57.93.33.21.75.31,1.27.31.44,0,.8-.09,1.06-.27.26-.18.39-.42.39-.71,0-.43-.33-.73-.99-.87l-1.6-.33c-1.33-.3-2-.96-2-2,0-.69.26-1.25.79-1.68s1.23-.64,2.11-.64c.83,0,1.52.19,2.07.58.55.39.89.9,1.03,1.53l-1.47.31c-.06-.36-.24-.66-.53-.87-.3-.22-.68-.32-1.14-.32-.42,0-.75.09-.97.27-.22.18-.33.41-.33.69,0,.41.3.69.89.83l1.75.38c.6.13,1.07.36,1.41.7.34.34.5.77.5,1.28,0,.75-.28,1.33-.84,1.75-.56.41-1.31.62-2.25.62-.87,0-1.6-.19-2.21-.56-.6-.37-.95-.91-1.04-1.62l1.54-.33Z"/>
    <path class="cls-2" d="M168.17,87.71c.76.72,1.13,1.64,1.13,2.76s-.38,2.05-1.14,2.77c-.76.72-1.69,1.08-2.78,1.08s-2.04-.36-2.81-1.08c-.77-.72-1.15-1.64-1.15-2.77s.38-2.05,1.15-2.76c.76-.72,1.7-1.07,2.81-1.07s2.04.36,2.79,1.07ZM167.08,92.29c.48-.47.73-1.07.73-1.81s-.24-1.34-.73-1.81c-.48-.47-1.05-.7-1.7-.7s-1.25.23-1.73.7-.72,1.07-.72,1.81.24,1.34.72,1.81c.48.47,1.05.7,1.73.7s1.22-.23,1.7-.7Z"/>
    <path class="cls-2" d="M181.52,90.84h-5.95c.07.66.32,1.19.74,1.58s.92.59,1.48.59c1.02,0,1.74-.42,2.16-1.27l1.38.3c-.3.76-.75,1.34-1.37,1.73-.62.39-1.34.59-2.17.59-1.03,0-1.91-.36-2.64-1.08-.73-.72-1.1-1.65-1.1-2.78s.37-2.08,1.1-2.81c.74-.73,1.64-1.09,2.7-1.09,1,0,1.85.35,2.55,1.04.71.7,1.08,1.59,1.12,2.67v.53ZM176.42,88.43c-.43.32-.71.76-.81,1.32h4.32c-.12-.58-.36-1.03-.74-1.33s-.82-.46-1.35-.46-.99.16-1.42.47Z"/>
    <path class="cls-2" d="M194.27,87.39c.54.53.81,1.22.81,2.07v4.68h-1.53v-4.37c0-.53-.16-.96-.47-1.28-.31-.32-.71-.48-1.19-.48-.61,0-1.1.21-1.45.64-.35.42-.53,1.04-.53,1.85v3.64h-1.54v-4.37c0-.53-.15-.96-.47-1.28-.31-.32-.71-.48-1.19-.48-.6,0-1.08.21-1.43.64s-.53,1.04-.53,1.85v3.64h-1.54v-7.34h1.54v.83c.56-.69,1.35-1.04,2.35-1.04.53,0,1.01.12,1.44.36.43.24.76.57,1,.99.64-.9,1.55-1.35,2.74-1.35.78,0,1.44.27,1.98.8Z"/>
    <path class="cls-2" d="M205.49,92.54c.38-.26.66-.64.84-1.15l1.42.37c-.21.78-.64,1.41-1.3,1.88-.66.47-1.42.71-2.28.71-1.08,0-1.99-.36-2.75-1.09-.76-.73-1.13-1.66-1.13-2.79s.38-2.05,1.13-2.78,1.67-1.1,2.75-1.1c.84,0,1.59.23,2.24.7.66.47,1.1,1.09,1.34,1.87l-1.48.43c-.14-.52-.39-.92-.77-1.18-.38-.27-.82-.4-1.33-.4-.68,0-1.25.23-1.7.69-.45.46-.67,1.05-.67,1.77s.22,1.34.67,1.78c.44.45,1.01.67,1.7.67.5,0,.95-.13,1.33-.39Z"/>
    <path class="cls-2" d="M214.69,87.32c.56.48.84,1.16.84,2.04v4.78h-1.47v-.84c-.63.7-1.47,1.05-2.5,1.05-.82,0-1.48-.22-1.98-.64-.5-.43-.75-.99-.75-1.68s.26-1.26.78-1.69c.52-.42,1.24-.64,2.17-.64h2.3v-.22c0-.47-.14-.85-.43-1.13-.29-.28-.67-.41-1.14-.41-1.03,0-1.62.42-1.79,1.27l-1.47-.31c.13-.69.48-1.25,1.07-1.67.58-.42,1.28-.64,2.1-.64.96,0,1.72.24,2.28.73ZM213.4,92.53c.44-.39.67-.85.67-1.41v-.24h-2.32c-.44,0-.79.1-1.05.3-.26.2-.39.47-.39.81s.14.6.41.81.63.3,1.09.3c.62,0,1.16-.19,1.6-.58Z"/>
    <path class="cls-2" d="M224.77,94.15h-1.55v-.9c-.65.74-1.54,1.11-2.67,1.11-.99,0-1.84-.37-2.56-1.1-.72-.73-1.08-1.66-1.08-2.78s.36-2.05,1.08-2.78c.72-.73,1.57-1.1,2.56-1.1,1.12,0,2,.37,2.67,1.11v-4.96h1.55v11.4ZM222.49,92.29c.48-.46.73-1.07.73-1.82s-.24-1.34-.73-1.81c-.48-.47-1.05-.7-1.69-.7-.68,0-1.25.23-1.7.7-.45.46-.68,1.07-.68,1.82s.23,1.37.68,1.83,1.02.69,1.7.69c.64,0,1.2-.23,1.69-.7Z"/>
    <path class="cls-2" d="M232.32,87.32c.56.48.84,1.16.84,2.04v4.78h-1.47v-.84c-.63.7-1.47,1.05-2.5,1.05-.82,0-1.48-.22-1.98-.64-.5-.43-.75-.99-.75-1.68s.26-1.26.78-1.69c.52-.42,1.24-.64,2.17-.64h2.3v-.22c0-.47-.14-.85-.43-1.13-.29-.28-.67-.41-1.14-.41-1.03,0-1.62.42-1.79,1.27l-1.47-.31c.13-.69.48-1.25,1.07-1.67.58-.42,1.28-.64,2.1-.64.96,0,1.72.24,2.28.73ZM231.04,92.53c.44-.39.67-.85.67-1.41v-.24h-2.32c-.44,0-.79.1-1.05.3-.26.2-.39.47-.39.81s.14.6.41.81.63.3,1.09.3c.62,0,1.16-.19,1.6-.58Z"/>
    <path class="cls-2" d="M246.07,94.15h-1.55v-.9c-.65.74-1.54,1.11-2.67,1.11-.99,0-1.84-.37-2.56-1.1-.72-.73-1.08-1.66-1.08-2.78s.36-2.05,1.08-2.78,1.57-1.1,2.56-1.1c1.12,0,2,.37,2.67,1.11v-4.96h1.55v11.4ZM243.79,92.29c.48-.46.73-1.07.73-1.82s-.24-1.34-.73-1.81c-.48-.47-1.05-.7-1.69-.7-.68,0-1.25.23-1.7.7-.45.46-.68,1.07-.68,1.82s.23,1.37.68,1.83,1.02.69,1.7.69c.64,0,1.2-.23,1.69-.7Z"/>
    <path class="cls-2" d="M255.23,90.84h-5.95c.07.66.32,1.19.74,1.58s.92.59,1.48.59c1.02,0,1.74-.42,2.16-1.27l1.38.3c-.3.76-.75,1.34-1.37,1.73-.62.39-1.34.59-2.17.59-1.03,0-1.91-.36-2.64-1.08-.73-.72-1.1-1.65-1.1-2.78s.37-2.08,1.1-2.81c.74-.73,1.64-1.09,2.7-1.09,1,0,1.85.35,2.55,1.04.71.7,1.08,1.59,1.12,2.67v.53ZM250.14,88.43c-.43.32-.71.76-.81,1.32h4.32c-.12-.58-.36-1.03-.74-1.33s-.82-.46-1.35-.46-.99.16-1.42.47Z"/>
    <path class="cls-2" d="M261.82,93.79c-.63.38-1.24.56-1.82.56-.82,0-1.47-.23-1.94-.69-.47-.46-.71-1.13-.71-2.02v-3.57h-1.58v-1.27h1.58v-2.58h1.54v2.58h2.52v1.27h-2.52v3.46c0,.44.11.78.33,1.01.22.23.51.35.89.35.42,0,.84-.13,1.24-.4l.47,1.29Z"/>
    <path class="cls-2" d="M268.29,87.32c.56.48.84,1.16.84,2.04v4.78h-1.47v-.84c-.63.7-1.47,1.05-2.5,1.05-.82,0-1.48-.22-1.98-.64-.5-.43-.75-.99-.75-1.68s.26-1.26.78-1.69c.52-.42,1.24-.64,2.17-.64h2.3v-.22c0-.47-.14-.85-.43-1.13-.29-.28-.67-.41-1.14-.41-1.03,0-1.62.42-1.79,1.27l-1.47-.31c.13-.69.48-1.25,1.07-1.67.58-.42,1.28-.64,2.1-.64.96,0,1.72.24,2.28.73ZM267,92.53c.44-.39.67-.85.67-1.41v-.24h-2.32c-.44,0-.79.1-1.05.3-.26.2-.39.47-.39.81s.14.6.41.81.63.3,1.09.3c.62,0,1.16-.19,1.6-.58Z"/>
    <path class="cls-2" d="M272.54,92.04c0,.26.09.46.27.62.18.16.4.24.68.24s.56-.07.89-.22l.3,1.29c-.47.26-.96.39-1.45.39-.66,0-1.2-.2-1.61-.61-.41-.4-.61-.94-.61-1.61v-9.39h1.54v9.3Z"/>
    <path class="cls-2" d="M282.11,87.46c.54.58.81,1.33.81,2.24v4.44h-1.55v-4.13c0-.6-.16-1.09-.48-1.45-.32-.37-.74-.55-1.27-.55-.68,0-1.22.23-1.61.7s-.59,1.14-.59,2.04v3.39h-1.54v-11.4h1.54v4.96c.62-.74,1.47-1.11,2.55-1.11.88,0,1.59.29,2.13.87Z"/>
    <path class="cls-2" d="M291.93,90.84h-5.95c.07.66.32,1.19.74,1.58s.92.59,1.48.59c1.02,0,1.74-.42,2.16-1.27l1.38.3c-.3.76-.75,1.34-1.37,1.73-.62.39-1.34.59-2.17.59-1.03,0-1.91-.36-2.64-1.08-.73-.72-1.1-1.65-1.1-2.78s.37-2.08,1.1-2.81c.74-.73,1.64-1.09,2.7-1.09,1,0,1.85.35,2.55,1.04.71.7,1.08,1.59,1.12,2.67v.53ZM286.83,88.43c-.43.32-.71.76-.81,1.32h4.32c-.12-.58-.36-1.03-.74-1.33s-.82-.46-1.35-.46-.99.16-1.42.47Z"/>
  </g>
  <path class="cls-2" d="M90.4,51.22l2.36,2.67c-3.15,3.39-6.87,5.09-11.15,5.09-4.61,0-8.28-1.45-11.03-4.36-2.75-2.99-4.12-6.63-4.12-10.91s1.39-7.88,4.18-10.79c2.83-2.95,6.5-4.42,11.03-4.42,4.12,0,7.76,1.66,10.91,4.97l-2.3,2.67c-2.18-2.3-4.77-3.45-7.76-3.45-2.46,0-4.45,1-5.97,3-1.52,2-2.27,4.72-2.27,8.15s.75,6.17,2.24,8.09c1.49,1.92,3.51,2.88,6.06,2.88,2.91,0,5.51-1.19,7.82-3.58Z"/>
  <path class="cls-2" d="M124.1,40.01v18.18h-7.39v-3.64c-1.82,2.99-4.79,4.48-8.91,4.48-7.51,0-11.27-3.15-11.27-9.45,0-3.03,1.1-5.37,3.3-7.03,2.2-1.66,5.3-2.48,9.3-2.48h7.58v-1.15c0-2.06-.63-3.68-1.88-4.85-1.25-1.17-2.97-1.76-5.15-1.76-3.56,0-6.71,1.19-9.45,3.58l-2.18-2.61c2.02-1.82,4.01-3.11,5.97-3.88,1.96-.77,4.27-1.15,6.94-1.15,4.12,0,7.34.99,9.67,2.97,2.32,1.98,3.48,4.91,3.48,8.79ZM116.7,47.16v-3.21h-7.15c-1.86,0-3.3.48-4.33,1.42-1.03.95-1.55,2.31-1.55,4.09s.5,3.04,1.52,4.03c1.01.99,2.36,1.48,4.06,1.48,2.26,0,4.07-.72,5.42-2.15,1.35-1.43,2.03-3.32,2.03-5.67Z"/>
  <path class="cls-2" d="M159.67,40.07v18.12h-7.64v-18.73c0-4.16-1.78-6.24-5.33-6.24-2.22,0-4.04.79-5.45,2.36-1.41,1.62-2.12,3.41-2.12,5.39v17.21h-7.64v-28.73h7.64v3.64c.85-1.33,2.15-2.43,3.91-3.3,1.76-.87,3.59-1.3,5.48-1.3,3.55,0,6.3,1.05,8.24,3.15,1.94,2.1,2.91,4.91,2.91,8.42Z"/>
  <path class="cls-2" d="M197.12,43.89c0,4.4-1.5,8.04-4.48,10.91-2.99,2.79-6.83,4.18-11.51,4.18-4.93,0-8.85-1.39-11.76-4.18-2.91-2.83-4.36-6.5-4.36-11.03s1.51-8.08,4.54-10.91c3.07-2.87,6.93-4.3,11.57-4.3s8.32,1.43,11.39,4.3c3.07,2.83,4.61,6.51,4.61,11.03ZM189.36,43.59c0-3.15-.73-5.7-2.18-7.64-1.45-1.94-3.5-2.91-6.12-2.91s-4.61.97-6.06,2.91c-1.45,1.94-2.18,4.48-2.18,7.64,0,3.39.71,6.07,2.12,8.03,1.41,1.96,3.47,2.94,6.18,2.94s4.61-1,6.06-3c1.45-2,2.18-4.66,2.18-7.97Z"/>
  <path class="cls-4" d="M234.51,44.13c0,4.16-1.35,7.66-4.06,10.48-2.75,2.87-6.22,4.3-10.42,4.3-4.44,0-7.66-1.35-9.64-4.06h-.06v17.09h-7.64V29.47h7.64v4h.06c.97-1.53,2.29-2.74,3.97-3.61,1.68-.87,3.57-1.3,5.67-1.3,4.2,0,7.68,1.52,10.42,4.55,2.71,2.99,4.06,6.67,4.06,11.03ZM226.75,44.01c0-3.43-.73-6.18-2.18-8.24-1.45-2.06-3.45-3.09-6-3.09s-4.75.98-6.24,2.94c-1.5,1.96-2.24,4.7-2.24,8.21s.75,6.3,2.24,8.24c1.49,1.94,3.6,2.91,6.3,2.91,2.5,0,4.48-1,5.94-3,1.45-2,2.18-4.66,2.18-7.97Z"/>
  <path class="cls-2" d="M239.84,47.59v-18.12h7.7v18.73c0,4.16,1.64,6.24,4.91,6.24,2.26,0,4.16-.77,5.7-2.3,1.49-1.53,2.24-3.35,2.24-5.45v-17.21h7.64v28.73h-7.64v-3.64c-.89,1.37-2.19,2.48-3.91,3.33-1.72.85-3.55,1.27-5.48,1.27-3.56,0-6.3-1.05-8.24-3.15-1.94-2.1-2.91-4.91-2.91-8.42Z"/>
  <path class="cls-2" d="M287.9,50.92c0-1.86-1.6-3.37-4.79-4.55-1.01-.4-1.81-.74-2.39-1-.59-.26-1.33-.69-2.24-1.27-.91-.58-1.62-1.17-2.12-1.76-.51-.58-.95-1.36-1.33-2.33-.38-.97-.58-2.02-.58-3.15,0-2.38.97-4.36,2.91-5.94,1.98-1.62,4.44-2.42,7.39-2.42s5.8,1.07,8.42,3.21l-1.88,3.03c-1.78-1.37-3.7-2.06-5.76-2.06-1.33,0-2.36.33-3.09,1-.73.67-1.09,1.55-1.09,2.64,0,1.62,1.6,3.01,4.79,4.18,1.29.48,2.31.91,3.06,1.27.75.36,1.63.91,2.64,1.64,1.01.73,1.77,1.64,2.27,2.73.5,1.09.76,2.36.76,3.82,0,2.83-1.04,5.05-3.12,6.67-2.08,1.62-4.98,2.42-8.7,2.42s-6.95-1.31-9.82-3.94l2.12-2.73c2.14,1.78,4.59,2.67,7.33,2.67,3.47,0,5.21-1.37,5.21-4.12Z"/>
  <g>
    <circle class="cls-2" cx="40.59" cy="43.5" r="7.1"/>
    <g>
      <polygon class="cls-1" points="52.18 8.72 29 8.72 5.82 31.91 29 31.91 52.18 31.91 75.36 8.72 52.18 8.72"/>
      <polygon class="cls-3" points="29 78.27 5.82 55.09 29 55.09 52.18 55.09 52.18 78.27 29 78.27"/>
    </g>
  </g>
  <rect class="cls-2" x="5.82" y="31.91" width="23.18" height="23.18"/>
</svg>